HIERARCHY
ROOT Hips
{
	OFFSET 0.00000 0.00000 0.00000
	CHANNELS 6 Xposition Yposition Zposition Zrotation Yrotation Xrotation 
	JOINT LHipJoint
	{
		OFFSET 0 0 0
		CHANNELS 3 Zrotation Yrotation Xrotation
		JOINT LeftUpLeg
		{
			OFFSET 1.36306 -1.79463 0.83929
			CHANNELS 3 Zrotation Yrotation Xrotation
			JOINT LeftLeg
			{
				OFFSET 2.44811 -6.72613 0.00000
				CHANNELS 3 Zrotation Yrotation Xrotation
				JOINT LeftFoot
				{
					OFFSET 2.56220 -7.03959 0.00000
					CHANNELS 3 Zrotation Yrotation Xrotation
					JOINT LeftToeBase
					{
						OFFSET 0.15764 -0.43311 2.32255
						CHANNELS 3 Zrotation Yrotation Xrotation
						End Site
						{
							OFFSET 0.00000 -0.00000 1.18966
						}
					}
				}
			}
		}
	}
	JOINT RHipJoint
	{
		OFFSET 0 0 0
		CHANNELS 3 Zrotation Yrotation Xrotation
		JOINT RightUpLeg
		{
			OFFSET -1.30552 -1.79463 0.83929
			CHANNELS 3 Zrotation Yrotation Xrotation
			JOINT RightLeg
			{
				OFFSET -2.54253 -6.98555 0.00000
				CHANNELS 3 Zrotation Yrotation Xrotation
				JOINT RightFoot
				{
					OFFSET -2.56826 -7.05623 0.00000
					CHANNELS 3 Zrotation Yrotation Xrotation
					JOINT RightToeBase
					{
						OFFSET -0.16473 -0.45259 2.36315
						CHANNELS 3 Zrotation Yrotation Xrotation
						End Site
						{
							OFFSET -0.00000 -0.00000 1.21082
						}
					}
				}
			}
		}
	}
	JOINT LowerBack
	{
		OFFSET 0 0 0
		CHANNELS 3 Zrotation Yrotation Xrotation
		JOINT Spine
		{
			OFFSET 0.02827 2.03559 -0.19338
			CHANNELS 3 Zrotation Yrotation Xrotation
			JOINT Spine1
			{
				OFFSET 0.05672 2.04885 -0.04275
				CHANNELS 3 Zrotation Yrotation Xrotation
				JOINT Neck
				{
					OFFSET 0 0 0
					CHANNELS 3 Zrotation Yrotation Xrotation
					JOINT Neck1
					{
						OFFSET -0.05417 1.74624 0.17202
						CHANNELS 3 Zrotation Yrotation Xrotation
						JOINT Head
						{
							OFFSET 0.10407 1.76136 -0.12397
							CHANNELS 3 Zrotation Yrotation Xrotation
							End Site
							{
								OFFSET 0.03720 1.77044 -0.06241
							}
						}
					}
				}
				JOINT LeftShoulder
				{
					OFFSET 0 0 0
					CHANNELS 3 Zrotation Yrotation Xrotation
					JOINT LeftArm
					{
						OFFSET 3.36241 1.20089 -0.31121
						CHANNELS 3 Zrotation Yrotation Xrotation
						JOINT LeftForeArm
						{
							OFFSET 4.98300 -0.00000 -0.00000
							CHANNELS 3 Zrotation Yrotation Xrotation
							JOINT LeftHand
							{
								OFFSET 3.48356 -0.00000 -0.00000
								CHANNELS 3 Zrotation Yrotation Xrotation
								JOINT LeftFingerBase
								{
									OFFSET 0 0 0
									CHANNELS 3 Zrotation Yrotation Xrotation
									JOINT LeftHandIndex1
									{
										OFFSET 0.71526 -0.00000 -0.00000
										CHANNELS 3 Zrotation Yrotation Xrotation
										End Site
										{
											OFFSET 0.57666 -0.00000 -0.00000
										}
									}
								}
								JOINT LThumb
								{
									OFFSET 0 0 0
									CHANNELS 3 Zrotation Yrotation Xrotation
									End Site
									{
										OFFSET 0.58547 -0.00000 0.58547
									}
								}
							}
						}
					}
				}
				JOINT RightShoulder
				{
					OFFSET 0 0 0
					CHANNELS 3 Zrotation Yrotation Xrotation
					JOINT RightArm
					{
						OFFSET -3.13660 1.37405 -0.40465
						CHANNELS 3 Zrotation Yrotation Xrotation
						JOINT RightForeArm
						{
							OFFSET -5.24190 -0.00000 -0.00000
							CHANNELS 3 Zrotation Yrotation Xrotation
							JOINT RightHand
							{
								OFFSET -3.44417 -0.00000 -0.00000
								CHANNELS 3 Zrotation Yrotation Xrotation
								JOINT RightFingerBase
								{
									OFFSET 0 0 0
									CHANNELS 3 Zrotation Yrotation Xrotation
									JOINT RightHandIndex1
									{
										OFFSET -0.62253 -0.00000 -0.00000
										CHANNELS 3 Zrotation Yrotation Xrotation
										End Site
										{
											OFFSET -0.50190 -0.00000 -0.00000
										}
									}
								}
								JOINT RThumb
								{
									OFFSET 0 0 0
									CHANNELS 3 Zrotation Yrotation Xrotation
									End Site
									{
										OFFSET -0.50956 -0.00000 0.50956
									}
								}
							}
						}
					}
				}
			}
		}
	}
}
MOTION
Frames: 11
Frame Time: .0083333
11.7028 17.7281 12.6634 0 0 0 0 0 0 -21 0 0 0 0 0 0 0 0 0 0 0 0 0 0 21 0 0 0 0 0 0 0 0 0 0 0 0 0 0 0 0 0 0 0 0 0 0 -16 0 0 21 0 0 11 0 0 0 -8 0 0 0 0 0 0 0 0 0 0 0 0 0 0 0 0 0 0 0 0 8 0 0 0 0 0 0 0 0 0 0 0 0 0 0 0 0 0
11.7028 17.7281 12.6634 -138.4530 -85.2291 138.7150 0.0000 0.0000 0.0000 -11.3746 2.6401 -4.8713 1.9801 8.8246 25.2481 1.0274 -2.6352 -18.4558 0.0088 -0.6046 -1.6615 0.0000 0.0000 0.0000 13.9777 4.8686 -1.8676 -1.9507 -8.7626 25.0556 -0.7101 -7.1346 -20.0750 -0.0019 0.2843 -0.7812 2.5193 1.4652 2.6042 2.4194 1.9847 1.1047 1.0123 0.9759 -0.3260 -4.2132 0.3213 -7.0333 0.8501 0.7537 11.4157 0.9922 0.2105 4.5576 -0.0000 -0.0000 0.0000 -48.7599 4.8808 64.1813 11.2253 -18.6328 -1.8473 -0.0000 -0.0000 28.9140 10.8951 -13.4285 -2.5594 -7.1250 0.0000 -0.0000 -11.3013 16.4809 7.7853 -0.0000 -0.0000 0.0000 53.9680 -3.0295 12.5075 -5.5045 9.4332 -0.4545 0.0000 0.0000 39.7667 -20.5185 -14.5345 5.3657 7.1250 -0.0000 -0.0000 6.5407 -45.3512 -0.0569
11.7024 17.7288 12.6647 -136.8460 -85.1328 137.0990 0.0000 0.0000 0.0000 -11.1943 2.4910 -4.8175 1.9864 8.8378 25.2891 1.0329 -2.5015 -18.5335 0.0130 -0.7376 -2.0271 0.0000 0.0000 0.0000 14.1898 4.9192 -1.7604 -1.9331 -8.7253 24.9397 -0.6903 -7.3436 -20.0446 -0.0005 0.1380 -0.3791 2.7622 1.4706 2.6038 2.4518 1.9948 1.1278 0.9101 0.9808 -0.2947 -4.1984 0.3604 -7.0164 0.7810 0.8127 11.3366 0.9715 0.2375 4.5295 0.0000 -0.0000 0.0000 -48.6520 4.6997 64.3424 11.1892 -18.5777 -1.8357 -0.0000 -0.0000 29.2964 11.3002 -13.3457 -2.6409 -7.1250 0.0000 -0.0000 -11.0270 16.5379 7.5749 0.0000 -0.0000 0.0000 54.3421 -2.8588 7.8163 -5.5321 9.4796 -0.4590 0.0000 0.0000 45.1549 -20.6905 -14.6820 5.4679 7.1250 -0.0000 -0.0000 6.4134 -45.5275 -0.0838
11.7013 17.7284 12.6664 -136.7480 -85.1847 136.9840 0.0000 0.0000 0.0000 -11.2497 2.2686 -4.6822 1.9804 8.8251 25.2496 1.0318 -2.4558 -18.5330 0.0082 -0.5852 -1.6082 0.0000 0.0000 0.0000 14.1255 4.7397 -1.7532 -1.9214 -8.7003 24.8624 -0.6949 -7.2084 -19.9817 -0.0015 0.2481 -0.6816 2.7787 1.4536 2.6021 2.4437 1.9717 1.1431 0.8935 0.9695 -0.2773 -4.2291 0.3579 -7.0729 0.7731 0.8171 11.3485 0.9746 0.2379 4.5425 -0.0000 -0.0000 0.0000 -48.5447 4.6681 64.2218 11.2448 -18.6625 -1.8535 -0.0000 -0.0000 29.6806 11.2043 -13.5434 -2.6559 -7.1250 0.0000 -0.0000 -11.0874 16.3468 7.6650 -0.0000 -0.0000 0.0000 53.9274 -3.0572 12.4008 -5.6791 9.7259 -0.4836 0.0000 0.0000 41.0767 -20.3494 -14.8875 5.4433 7.1250 -0.0000 -0.0000 6.7732 -45.6997 -0.1175
11.6990 17.7308 12.6688 -137.1710 -85.1753 137.3800 0.0000 0.0000 0.0000 -11.2914 2.3216 -4.6327 1.9738 8.8113 25.2070 1.0232 -2.4680 -18.4506 0.0052 -0.4663 -1.2814 0.0000 0.0000 0.0000 14.1627 5.0407 -1.5289 -1.9081 -8.6719 24.7743 -0.6813 -7.4743 -20.0598 -0.0032 0.3655 -1.0043 2.8171 1.4454 2.6021 2.4340 1.9609 1.1586 0.8627 0.9644 -0.2598 -4.3201 0.4265 -6.8941 0.8911 0.8983 11.1228 1.0288 0.2849 4.4401 0.0000 0.0000 0.0000 -48.5694 4.6887 63.5808 11.2873 -18.7274 -1.8671 -0.0000 -0.0000 29.9814 10.9331 -13.7681 -2.6322 -7.1250 0.0000 -0.0000 -11.2663 16.1403 7.8452 0.0000 0.0000 0.0000 53.9421 -2.9507 11.9219 -5.7090 9.7759 -0.4886 0.0000 0.0000 41.8171 -19.7505 -14.2566 5.0530 7.1250 -0.0000 -0.0000 7.1868 -44.9662 0.0060
11.6979 17.7306 12.6689 -137.9190 -85.2006 138.1240 0.0000 0.0000 0.0000 -11.3957 2.1863 -4.5468 1.9707 8.8047 25.1863 1.0242 -2.1970 -18.5180 0.0142 -0.7693 -2.1142 0.0000 0.0000 0.0000 14.0348 4.8147 -1.6126 -1.9045 -8.6642 24.7505 -0.6919 -7.2350 -19.9729 -0.0056 0.4817 -1.3235 2.8366 1.4561 2.5728 2.3708 1.9743 1.1767 0.7878 0.9721 -0.2219 -4.2117 0.4968 -6.7647 0.8298 0.9826 10.9101 0.9954 0.3311 4.3518 0.0000 -0.0000 0.0000 -48.6439 4.6767 62.5776 11.3133 -18.7669 -1.8755 -0.0000 -0.0000 30.2136 10.6392 -13.8828 -2.5807 -7.1250 0.0000 -0.0000 -11.4631 16.0449 8.0121 0.0000 -0.0000 0.0000 53.6376 -3.1424 16.5620 -5.9141 10.1187 -0.5240 0.0000 0.0000 37.1525 -19.3982 -14.1811 4.9304 7.1250 -0.0000 -0.0000 7.4928 -44.8449 0.0288
11.6968 17.7332 12.6698 -138.4970 -85.3070 138.7010 0.0000 0.0000 0.0000 -11.5657 1.8079 -4.3617 1.9636 8.7898 25.1399 1.0327 -1.8760 -18.6705 0.0235 -0.9902 -2.7218 0.0000 0.0000 0.0000 13.9743 5.0603 -1.4831 -1.9003 -8.6552 24.7225 -0.6980 -7.4073 -20.1725 -0.0032 0.3625 -0.9959 2.8050 1.4378 2.5127 2.3072 1.9461 1.2122 0.7432 0.9594 -0.1510 -4.1479 0.4855 -6.8100 0.6688 0.9836 10.5069 1.0322 0.3221 4.7064 0.0000 -0.0000 0.0000 -48.7529 4.6551 61.4867 11.3417 -18.8102 -1.8846 -0.0000 -0.0000 30.2968 10.1655 -14.1281 -2.5061 -7.1250 0.0000 -0.0000 -11.7775 15.8316 8.2971 0.0000 -0.0000 0.0000 54.1362 -2.7851 12.0097 -5.7936 9.9174 -0.5031 0.0000 0.0000 41.4972 -19.0740 -13.7900 4.7116 7.1250 -0.0000 -0.0000 7.7032 -44.4001 0.1148
11.6956 17.7291 12.6680 -138.4180 -85.2151 138.6860 0.0000 0.0000 0.0000 -11.4916 1.8598 -4.4281 1.9602 8.7827 25.1178 1.0344 -1.8723 -18.6875 0.0151 -0.7938 -2.1817 0.0000 0.0000 0.0000 13.9696 4.8023 -1.7172 -1.9058 -8.6671 24.7595 -0.7149 -7.0529 -20.0591 -0.0003 0.1093 -0.3004 2.8951 1.4641 2.3944 2.3175 1.9765 1.2285 0.7065 0.9755 -0.0651 -4.1673 0.4890 -6.8028 0.7173 0.9825 10.8569 0.9536 0.3276 4.3430 -0.0000 -0.0000 0.0000 -48.9141 4.6307 60.2679 11.3991 -18.8974 -1.9032 -0.0000 -0.0000 30.1868 10.1946 -14.1266 -2.5131 -7.1250 0.0000 -0.0000 -11.7577 15.8312 8.2827 -0.0000 -0.0000 0.0000 53.7585 -2.9997 17.2690 -6.0623 10.3660 -0.5504 0.0000 0.0000 35.5914 -18.3871 -15.3559 5.0305 7.1250 -0.0000 -0.0000 8.6960 -45.9361 -0.2024
11.6941 17.7319 12.6653 -138.9500 -85.1385 139.2840 0.0000 0.0000 0.0000 -11.4560 2.1189 -4.5798 1.9561 8.7741 25.0912 1.0279 -1.8983 -18.6210 0.0138 -0.7575 -2.0818 0.0000 0.0000 0.0000 14.1253 5.4498 -1.5325 -1.9072 -8.6700 24.7682 -0.6996 -7.5631 -20.3147 -0.0001 0.0790 -0.2172 2.8779 1.5250 2.3505 2.3393 2.0570 1.1901 0.7372 1.0154 -0.0805 -4.1752 0.4651 -6.8861 0.6850 0.9582 11.0046 0.9446 0.3107 4.4030 0.0000 0.0000 0.0000 -49.1511 4.6638 58.8290 11.5103 -19.0662 -1.9393 -0.0000 -0.0000 29.8078 10.8367 -13.8812 -2.6294 -7.1250 0.0000 -0.0000 -11.3291 16.0340 7.9173 0.0000 0.0000 0.0000 54.2088 -2.7972 13.2311 -6.0314 10.3145 -0.5449 0.0000 0.0000 38.4634 -17.3810 -15.5315 4.7911 7.1250 -0.0000 -0.0000 9.6683 -45.9882 -0.2380
11.6952 17.7324 12.6652 -139.3730 -85.1743 139.6900 0.0000 0.0000 0.0000 -11.4755 2.3276 -4.6738 1.9607 8.7836 25.1208 1.0249 -2.2179 -18.5197 0.0076 -0.5646 -1.5514 0.0000 0.0000 0.0000 14.0651 5.4350 -1.5354 -1.9112 -8.6787 24.7954 -0.7110 -7.4714 -20.3529 -0.0024 0.3180 -0.8736 2.8280 1.5558 2.4153 2.3424 2.1008 1.1750 0.7649 1.0366 -0.1340 -4.2315 0.4125 -6.9150 0.6704 0.8965 11.0556 0.9461 0.2762 4.4249 0.0000 0.0000 0.0000 -49.4466 4.6852 57.2775 11.6636 -19.2982 -1.9897 -0.0000 -0.0000 28.9781 10.6741 -14.0478 -2.6195 -7.1250 0.0000 -0.0000 -11.4351 15.8787 8.0337 0.0000 0.0000 0.0000 54.5146 -2.8393 11.8764 -6.1493 10.5109 -0.5662 0.0000 0.0000 38.5403 -17.0853 -14.6068 4.4322 7.1250 -0.0000 -0.0000 9.7025 -45.0069 -0.0017
11.6957 17.7328 12.6659 -137.8390 -85.0872 138.1550 0.0000 0.0000 0.0000 -11.2956 2.2254 -4.6363 1.9638 8.7904 25.1417 1.0310 -2.4067 -18.5355 0.0005 -0.1429 -0.3927 0.0000 0.0000 0.0000 14.2048 5.2924 -1.5716 -1.9064 -8.6684 24.7633 -0.7165 -7.3305 -20.2940 -0.0017 0.2645 -0.7266 3.0770 1.5634 2.4307 2.3369 2.1144 1.1988 0.6203 1.0441 -0.1085 -4.1975 0.3501 -7.0353 0.5875 0.8250 11.0592 0.9114 0.2380 4.4487 0.0000 -0.0000 0.0000 -49.9285 4.6209 54.6477 11.7120 -19.3713 -2.0057 -0.0000 -0.0000 28.5942 9.8441 -14.9740 -2.5671 -7.1250 0.0000 -0.0000 -11.9712 15.0143 8.6553 0.0000 -0.0000 0.0000 55.0237 -2.4858 8.9229 -5.9835 10.2346 -0.5363 0.0000 0.0000 39.6372 -17.5161 -13.7618 4.2936 7.1250 -0.0000 -0.0000 9.1089 -44.1919 0.1833
